<svg xmlns="http://www.w3.org/2000/svg" width="24" height="24" viewBox="0 0 24 24" fill="none">
  <path d="M9 20c-2 0-3-1.1-3-2.4 0-1.1.6-1.9 1.6-2.3" stroke="#EEF3FF" stroke-width="1.8" stroke-linecap="round" stroke-linejoin="round" opacity="0.95"/>
  <path d="M12 19.8c-1.7 0-2.8-.9-2.8-2.2 0-1 .6-1.7 1.6-2.1" stroke="#EEF3FF" stroke-width="1.8" stroke-linecap="round" stroke-linejoin="round" opacity="0.95"/>
  <path d="M15.2 19.6c-1.7 0-2.7-.9-2.7-2.1 0-.9.5-1.6 1.4-2" stroke="#EEF3FF" stroke-width="1.8" stroke-linecap="round" stroke-linejoin="round" opacity="0.95"/>
  <path d="M8.2 8.6c0-1.4 1.2-2.4 2.7-2.4 1.7 0 2.6-1 2.6-2.2" stroke="#EEF3FF" stroke-width="1.8" stroke-linecap="round" stroke-linejoin="round" opacity="0.95"/>
  <path d="M12 11c0-1.3 1-2.2 2.4-2.2 1.6 0 2.4-1 2.4-2.1" stroke="#EEF3FF" stroke-width="1.8" stroke-linecap="round" stroke-linejoin="round" opacity="0.95"/>
</svg>
